0
SECTION
2
HEADER
9
$INSUNITS
70
4
9
$ACADVER
1
AC1014
9
$HANDSEED
5
FFFF
0
ENDSEC
0
SECTION
2
TABLES
0
TABLE
2
VPORT
5
8
100
AcDbSymbolTable
0
ENDTAB
0
TABLE
2
LTYPE
5
5
100
AcDbSymbolTable
0
LTYPE
5
14
100
AcDbSymbolTableRecord
100
AcDbLinetypeTableRecord
2
BYBLOCK
70
0
0
LTYPE
5
15
100
AcDbSymbolTableRecord
100
AcDbLinetypeTableRecord
2
BYLAYER
70
0
0
ENDTAB
0
TABLE
2
LAYER
5
2
100
AcDbSymbolTable
70
2
0
LAYER
5
50
100
AcDbSymbolTableRecord
100
AcDbLayerTableRecord
2
0
70
0
6
CONTINUOUS
0
ENDTAB
0
TABLE
2
STYLE
5
3
100
AcDbSymbolTable
70
1
0
STYLE
5
11
100
AcDbSymbolTableRecord
100
AcDbTextStyleTableRecord
2
STANDARD
70
0
0
ENDTAB
0
TABLE
2
VIEW
5
6
100
AcDbSymbolTable
70
0
0
ENDTAB
0
TABLE
2
UCS
5
7
100
AcDbSymbolTable
70
0
0
ENDTAB
0
TABLE
2
APPID
5
9
100
AcDbSymbolTable
70
2
0
APPID
5
12
100
AcDbSymbolTableRecord
100
AcDbRegAppTableRecord
2
ACAD
70
0
0
ENDTAB
0
TABLE
2
DIMSTYLE
5
A
100
AcDbSymbolTable
70
1
0
ENDTAB
0
TABLE
2
BLOCK_RECORD
5
1
100
AcDbSymbolTable
70
1
0
BLOCK_RECORD
5
1F
100
AcDbSymbolTableRecord
100
AcDbBlockTableRecord
2
*MODEL_SPACE
0
BLOCK_RECORD
5
1B
100
AcDbSymbolTableRecord
100
AcDbBlockTableRecord
2
*PAPER_SPACE
0
ENDTAB
0
ENDSEC
0
SECTION
2
BLOCKS
0
BLOCK
5
20
100
AcDbEntity
100
AcDbBlockBegin
2
*MODEL_SPACE
0
ENDBLK
5
21
100
AcDbEntity
100
AcDbBlockEnd
0
BLOCK
5
1C
100
AcDbEntity
100
AcDbBlockBegin
2
*PAPER_SPACE
0
ENDBLK
5
1D
100
AcDbEntity
100
AcDbBlockEnd
0
ENDSEC
0
SECTION
2
ENTITIES
0
LWPOLYLINE
5
100
100
AcDbEntity
8
0
100
AcDbPolyline
90
50
70
1
43
0.0
10
274.48100000000011
20
-136.02699999999993
42
0.41421356237309503
10
275.78100000000012
20
-134.72699999999995
10
275.78100000000006
20
-61.11899999999995
42
0.41421356237309503
10
274.48100000000005
20
-59.818999999999946
10
260.47499999999917
20
-59.818999999999953
42
0.41421356237309503
10
259.17499999999916
20
-61.118999999999971
10
259.17499999999916
20
-62.36716119974438
42
-0.99999999999999989
10
255.17499999999922
20
-62.367161199744395
10
255.17499999999916
20
-61.118999999999971
42
0.41421356237309503
10
253.8749999999992
20
-59.81899999999996
10
146.17499999999924
20
-59.819000000000003
42
0.41421356237309503
10
144.87499999999923
20
-61.119000000000014
10
144.87499999999926
20
-62.348159863110283
42
-0.99999999999999989
10
140.87499999999926
20
-62.348159863110283
10
140.87499999999926
20
-61.119
42
0.41421356237309309
10
139.57499999999928
20
-59.819000000000003
10
29.484355406192122
20
-59.819000000000059
42
0.41421356237309503
10
28.184355406192125
20
-61.119000000000064
10
28.184355406192125
20
-62.367161199744572
42
-0.99999999999999989
10
24.184355406192122
20
-62.367161199744572
10
24.184355406192111
20
-61.119000000000064
42
0.41421356237309503
10
22.884355406192121
20
-59.819000000000059
10
1.3000000000000176
20
-59.819000000000067
42
0.41421356237309492
10
1.8173794789677387e-14
20
-61.119000000000071
10
3.9412917374193057e-14
20
-134.72700000000006
42
0.41421356237309515
10
1.3000000000000402
20
-136.02700000000004
10
20.51250000000072
20
-136.02700000000004
42
0.41421356237309503
10
21.812500000000718
20
-134.72700000000006
10
21.812500000000714
20
-133.52515783655247
42
-0.99999999999999989
10
25.8125000000007
20
-133.52515783655247
10
25.8125000000007
20
-134.72700000000006
42
0.41421356237309503
10
27.112500000000708
20
-136.02700000000004
10
66.947991711476661
20
-136.02700000000002
42
0.4146295521206495
10
68.247990400689645
20
-134.72515391102166
10
68.246252016596117
20
-133.50100000000012
42
-1.0014210781754715
10
72.246247983405311
20
-133.50100000000009
10
72.244509599311769
20
-134.72515391102166
42
0.4146295521206495
10
73.544508288524767
20
-136.02700000000004
10
202.67875000000063
20
-136.02699999999996
42
0.41421356237309503
10
203.97875000000062
20
-134.72699999999998
10
203.97875000000062
20
-133.42516290518222
42
-0.99999999999999989
10
207.97875000000062
20
-133.42516290518222
10
207.97875000000062
20
-134.72699999999998
42
0.41421356237309903
10
209.27875000000063
20
-136.02699999999996
10
249.11250000000067
20
-136.02699999999996
42
0.41421356237309503
10
250.41250000000065
20
-134.72699999999998
10
250.41250000000065
20
-133.52515783655224
42
-0.99999999999999989
10
254.41250000000065
20
-133.52515783655224
10
254.41250000000065
20
-134.72699999999998
42
0.41421356237309503
10
255.71250000000063
20
-136.02699999999996
0
LWPOLYLINE
5
101
100
AcDbEntity
8
0
100
AcDbPolyline
90
8
70
1
43
0.0
10
7.7875000000000085
20
-62.345000000000056
10
20.787500000000009
20
-62.345000000000041
42
-0.41421356237309764
10
21.287500000000009
20
-62.845000000000041
10
21.287500000000023
20
-75.84500000000007
42
-0.4142135623730846
10
20.787500000000016
20
-76.345000000000056
10
7.787500000000013
20
-76.345000000000056
42
-0.41421356237309503
10
7.2875000000000139
20
-75.845000000000056
10
7.2875000000000192
20
-62.845000000000056
42
-0.41421356237310025
0
LWPOLYLINE
5
102
100
AcDbEntity
8
0
100
AcDbPolyline
90
8
70
1
43
0.0
10
31.600000000000005
20
-62.345000000000041
10
44.600000000000009
20
-62.345000000000027
42
-0.41421356237309503
10
45.100000000000016
20
-62.845000000000027
10
45.100000000000023
20
-75.845000000000056
42
-0.4142135623730846
10
44.600000000000016
20
-76.345000000000041
10
31.600000000000016
20
-76.345000000000041
42
-0.41421356237309503
10
31.100000000000016
20
-75.845000000000041
10
31.100000000000023
20
-62.845000000000049
42
-0.41421356237309764
0
LWPOLYLINE
5
103
100
AcDbEntity
8
0
100
AcDbPolyline
90
8
70
1
43
0.0
10
50.650000000000013
20
-62.345000000000041
10
63.650000000000013
20
-62.345000000000013
42
-0.41421356237310025
10
64.15000000000002
20
-62.845000000000027
10
64.150000000000034
20
-75.845000000000041
42
-0.4142135623730846
10
63.65000000000002
20
-76.345000000000041
10
50.65000000000002
20
-76.345000000000041
42
-0.41421356237309503
10
50.15000000000002
20
-75.845000000000041
10
50.15000000000002
20
-62.845000000000041
42
-0.41421356237310025
0
LWPOLYLINE
5
104
100
AcDbEntity
8
0
100
AcDbPolyline
90
8
70
1
43
0.0
10
69.700000000000017
20
-62.345000000000034
10
82.700000000000031
20
-62.345000000000027
42
-0.41421356237309503
10
83.200000000000017
20
-62.845000000000013
10
83.200000000000045
20
-75.845000000000041
42
-0.4142135623730846
10
82.700000000000031
20
-76.345000000000027
10
69.700000000000017
20
-76.345000000000027
42
-0.41421356237309503
10
69.200000000000031
20
-75.845000000000027
10
69.200000000000017
20
-62.845000000000027
42
-0.41421356237309503
0
LWPOLYLINE
5
105
100
AcDbEntity
8
0
100
AcDbPolyline
90
8
70
1
43
0.0
10
88.750000000000014
20
-62.345000000000027
10
101.75000000000003
20
-62.345000000000006
42
-0.41421356237309503
10
102.25000000000003
20
-62.845000000000013
10
102.25000000000003
20
-75.845000000000027
42
-0.4142135623730846
10
101.75000000000003
20
-76.345000000000013
10
88.750000000000014
20
-76.345000000000013
42
-0.41421356237309503
10
88.250000000000028
20
-75.845000000000027
10
88.250000000000028
20
-62.845000000000027
42
-0.41421356237310542
0
LWPOLYLINE
5
106
100
AcDbEntity
8
0
100
AcDbPolyline
90
8
70
1
43
0.0
10
107.80000000000003
20
-62.345000000000013
10
120.80000000000001
20
-62.344999999999985
42
-0.41421356237309503
10
121.30000000000003
20
-62.844999999999999
10
121.30000000000003
20
-75.845000000000027
42
-0.4142135623730846
10
120.80000000000001
20
-76.345000000000013
10
107.80000000000003
20
-76.345000000000013
42
-0.41421356237309503
10
107.30000000000003
20
-75.845000000000013
10
107.30000000000004
20
-62.845000000000013
42
-0.41421356237309503
0
LWPOLYLINE
5
107
100
AcDbEntity
8
0
100
AcDbPolyline
90
8
70
1
43
0.0
10
126.85000000000002
20
-62.345000000000006
10
139.85000000000002
20
-62.344999999999985
42
-0.41421356237309503
10
140.35000000000002
20
-62.844999999999999
10
140.35000000000002
20
-75.844999999999999
42
-0.41421356237309503
10
139.85000000000002
20
-76.344999999999999
10
126.85000000000002
20
-76.345000000000013
42
-0.41421356237309503
10
126.35000000000002
20
-75.844999999999999
10
126.35000000000004
20
-62.845000000000013
42
-0.41421356237310542
0
LWPOLYLINE
5
108
100
AcDbEntity
8
0
100
AcDbPolyline
90
8
70
1
43
0.0
10
145.90000000000003
20
-62.344999999999999
10
158.90000000000003
20
-62.34499999999997
42
-0.41421356237309503
10
159.40000000000003
20
-62.844999999999978
10
159.40000000000003
20
-75.844999999999985
42
-0.41421356237309503
10
158.90000000000003
20
-76.344999999999999
10
145.90000000000003
20
-76.344999999999999
42
-0.41421356237309503
10
145.40000000000003
20
-75.844999999999999
10
145.40000000000003
20
-62.844999999999999
42
-0.41421356237309503
0
LWPOLYLINE
5
109
100
AcDbEntity
8
0
100
AcDbPolyline
90
8
70
1
43
0.0
10
164.95000000000002
20
-62.344999999999985
10
177.94999999999999
20
-62.34499999999997
42
-0.41421356237309503
10
178.44999999999999
20
-62.844999999999978
10
178.44999999999999
20
-75.84499999999997
42
-0.41421356237309503
10
177.94999999999999
20
-76.344999999999985
10
164.95000000000002
20
-76.344999999999999
42
-0.41421356237309503
10
164.44999999999999
20
-75.844999999999985
10
164.44999999999999
20
-62.844999999999999
42
-0.41421356237310542
0
LWPOLYLINE
5
110
100
AcDbEntity
8
0
100
AcDbPolyline
90
8
70
1
43
0.0
10
184.00000000000003
20
-62.344999999999978
10
197.00000000000006
20
-62.344999999999985
42
-0.41421356237309503
10
197.50000000000003
20
-62.844999999999956
10
197.50000000000006
20
-75.84499999999997
42
-0.41421356237309503
10
197.00000000000006
20
-76.34499999999997
10
184.00000000000003
20
-76.344999999999985
42
-0.41421356237309503
10
183.5
20
-75.84499999999997
10
183.5
20
-62.844999999999978
42
-0.41421356237309503
0
LWPOLYLINE
5
111
100
AcDbEntity
8
0
100
AcDbPolyline
90
8
70
1
43
0.0
10
203.05000000000004
20
-62.34499999999997
10
216.05000000000007
20
-62.344999999999978
42
-0.41421356237309503
10
216.55000000000004
20
-62.844999999999949
10
216.55000000000007
20
-75.844999999999956
42
-0.41421356237309503
10
216.05000000000007
20
-76.34499999999997
10
203.05000000000004
20
-76.34499999999997
42
-0.41421356237309503
10
202.55000000000001
20
-75.84499999999997
10
202.55000000000001
20
-62.84499999999997
42
-0.41421356237310025
0
LWPOLYLINE
5
112
100
AcDbEntity
8
0
100
AcDbPolyline
90
8
70
1
43
0.0
10
222.10000000000005
20
-62.344999999999963
10
235.10000000000002
20
-62.344999999999942
42
-0.41421356237308982
10
235.60000000000002
20
-62.844999999999942
10
235.60000000000002
20
-75.844999999999942
42
-0.41421356237310025
10
235.10000000000002
20
-76.34499999999997
10
222.10000000000005
20
-76.34499999999997
42
-0.41421356237309503
10
221.60000000000002
20
-75.844999999999956
10
221.60000000000002
20
-62.844999999999956
42
-0.41421356237310025
0
LWPOLYLINE
5
113
100
AcDbEntity
8
0
100
AcDbPolyline
90
8
70
1
43
0.0
10
241.15000000000006
20
-62.344999999999956
10
254.15000000000003
20
-62.344999999999935
42
-0.41421356237309503
10
254.65000000000003
20
-62.844999999999942
10
254.65000000000003
20
-75.84499999999997
42
-0.4142135623730846
10
254.15000000000003
20
-76.344999999999956
10
241.15000000000006
20
-76.344999999999956
42
-0.41421356237309503
10
240.65000000000003
20
-75.844999999999942
10
240.65000000000003
20
-62.844999999999949
42
-0.41421356237310025
0
LWPOLYLINE
5
114
100
AcDbEntity
8
0
100
AcDbPolyline
90
8
70
1
43
0.0
10
260.19999999999999
20
-62.344999999999942
10
273.20000000000005
20
-62.344999999999935
42
-0.41421356237309503
10
273.70000000000005
20
-62.844999999999942
10
273.70000000000005
20
-75.844999999999956
42
-0.4142135623730846
10
273.20000000000005
20
-76.344999999999942
10
260.19999999999999
20
-76.344999999999942
42
-0.41421356237309503
10
259.69999999999999
20
-75.844999999999942
10
259.69999999999999
20
-62.844999999999942
42
-0.41421356237310025
0
LWPOLYLINE
5
115
100
AcDbEntity
8
0
100
AcDbPolyline
90
8
70
1
43
0.0
10
36.362500000000011
20
-81.397000000000048
10
49.362500000000018
20
-81.397000000000048
42
-0.41421356237309503
10
49.862500000000018
20
-81.897000000000048
10
49.86250000000004
20
-94.897000000000048
42
-0.41421356237309503
10
49.362500000000026
20
-95.397000000000048
10
36.362500000000026
20
-95.397000000000048
42
-0.41421356237309503
10
35.862500000000018
20
-94.897000000000048
10
35.862500000000004
20
-81.897000000000048
42
-0.41421356237309503
0
LWPOLYLINE
5
116
100
AcDbEntity
8
0
100
AcDbPolyline
90
8
70
1
43
0.0
10
55.412500000000023
20
-81.397000000000048
10
68.412500000000009
20
-81.397000000000048
42
-0.41421356237309503
10
68.912500000000009
20
-81.897000000000034
10
68.912500000000023
20
-94.89700000000002
42
-0.41421356237309503
10
68.412500000000023
20
-95.397000000000034
10
55.412500000000037
20
-95.397000000000034
42
-0.41421356237309503
10
54.912500000000037
20
-94.897000000000048
10
54.912500000000016
20
-81.897000000000048
42
-0.41421356237309503
0
LWPOLYLINE
5
117
100
AcDbEntity
8
0
100
AcDbPolyline
90
8
70
1
43
0.0
10
74.462500000000034
20
-81.397000000000034
10
87.462500000000034
20
-81.397000000000048
42
-0.41421356237309503
10
87.96250000000002
20
-81.897000000000034
10
87.962500000000034
20
-94.89700000000002
42
-0.41421356237309503
10
87.462500000000034
20
-95.397000000000034
10
74.462500000000034
20
-95.397000000000034
42
-0.41421356237309503
10
73.962500000000034
20
-94.89700000000002
10
73.96250000000002
20
-81.897000000000034
42
-0.41421356237309503
0
LWPOLYLINE
5
118
100
AcDbEntity
8
0
100
AcDbPolyline
90
8
70
1
43
0.0
10
93.512500000000017
20
-81.397000000000034
10
106.51250000000003
20
-81.39700000000002
42
-0.41421356237309503
10
107.01250000000003
20
-81.89700000000002
10
107.01250000000003
20
-94.89700000000002
42
-0.4142135623730846
10
106.51250000000003
20
-95.39700000000002
10
93.512500000000017
20
-95.39700000000002
42
-0.41421356237309503
10
93.012500000000031
20
-94.89700000000002
10
93.012500000000017
20
-81.897000000000034
42
-0.41421356237309503
0
LWPOLYLINE
5
119
100
AcDbEntity
8
0
100
AcDbPolyline
90
8
70
1
43
0.0
10
112.56250000000003
20
-81.39700000000002
10
125.56250000000003
20
-81.39700000000002
42
-0.41421356237309503
10
126.06250000000003
20
-81.89700000000002
10
126.06250000000003
20
-94.89700000000002
42
-0.4142135623730846
10
125.56250000000003
20
-95.39700000000002
10
112.56250000000003
20
-95.39700000000002
42
-0.41421356237309503
10
112.06250000000003
20
-94.897000000000006
10
112.06250000000003
20
-81.89700000000002
42
-0.41421356237309503
0
LWPOLYLINE
5
120
100
AcDbEntity
8
0
100
AcDbPolyline
90
8
70
1
43
0.0
10
131.61250000000004
20
-81.39700000000002
10
144.61250000000004
20
-81.396999999999991
42
-0.41421356237309503
10
145.11250000000004
20
-81.897000000000006
10
145.11250000000004
20
-94.897000000000006
42
-0.4142135623730846
10
144.61250000000004
20
-95.396999999999991
10
131.61250000000004
20
-95.39700000000002
42
-0.41421356237309503
10
131.11250000000004
20
-94.897000000000006
10
131.11250000000004
20
-81.89700000000002
42
-0.41421356237309503
0
LWPOLYLINE
5
121
100
AcDbEntity
8
0
100
AcDbPolyline
90
8
70
1
43
0.0
10
150.66250000000002
20
-81.396999999999991
10
163.66250000000005
20
-81.396999999999991
42
-0.41421356237309503
10
164.16250000000005
20
-81.897000000000006
10
164.16250000000005
20
-94.897000000000006
42
-0.4142135623730846
10
163.66250000000005
20
-95.396999999999991
10
150.66250000000002
20
-95.396999999999991
42
-0.41421356237309503
10
150.16250000000002
20
-94.896999999999991
10
150.16250000000002
20
-81.897000000000006
42
-0.41421356237309503
0
LWPOLYLINE
5
122
100
AcDbEntity
8
0
100
AcDbPolyline
90
8
70
1
43
0.0
10
169.71250000000001
20
-81.396999999999991
10
182.71250000000006
20
-81.396999999999991
42
-0.41421356237309503
10
183.21250000000006
20
-81.897000000000006
10
183.21250000000006
20
-94.897000000000006
42
-0.4142135623730846
10
182.71250000000006
20
-95.396999999999991
10
169.71250000000001
20
-95.396999999999991
42
-0.41421356237309503
10
169.21250000000001
20
-94.896999999999991
10
169.21250000000001
20
-81.897000000000006
42
-0.41421356237309503
0
LWPOLYLINE
5
123
100
AcDbEntity
8
0
100
AcDbPolyline
90
8
70
1
43
0.0
10
188.76250000000002
20
-81.396999999999977
10
201.76249999999999
20
-81.396999999999977
42
-0.41421356237309503
10
202.26249999999999
20
-81.896999999999991
10
202.26249999999999
20
-94.896999999999991
42
-0.4142135623730846
10
201.76249999999999
20
-95.396999999999977
10
188.76250000000002
20
-95.396999999999977
42
-0.41421356237309503
10
188.26250000000002
20
-94.896999999999977
10
188.26250000000002
20
-81.896999999999991
42
-0.41421356237309503
0
LWPOLYLINE
5
124
100
AcDbEntity
8
0
100
AcDbPolyline
90
8
70
1
43
0.0
10
207.81250000000003
20
-81.396999999999977
10
220.8125
20
-81.396999999999977
42
-0.41421356237309503
10
221.3125
20
-81.896999999999991
10
221.3125
20
-94.896999999999991
42
-0.4142135623730846
10
220.8125
20
-95.396999999999977
10
207.81250000000003
20
-95.396999999999949
42
-0.41421356237309503
10
207.31250000000006
20
-94.896999999999977
10
207.31250000000003
20
-81.896999999999991
42
-0.41421356237309503
0
LWPOLYLINE
5
125
100
AcDbEntity
8
0
100
AcDbPolyline
90
8
70
1
43
0.0
10
226.86250000000004
20
-81.396999999999963
10
239.86250000000001
20
-81.396999999999963
42
-0.41421356237309503
10
240.36250000000001
20
-81.896999999999963
10
240.36250000000001
20
-94.896999999999977
42
-0.4142135623730846
10
239.86250000000001
20
-95.396999999999963
10
226.86250000000004
20
-95.396999999999935
42
-0.41421356237309503
10
226.36250000000007
20
-94.896999999999963
10
226.36250000000004
20
-81.896999999999963
42
-0.41421356237309503
0
LWPOLYLINE
5
126
100
AcDbEntity
8
0
100
AcDbPolyline
90
8
70
1
43
0.0
10
253.05625000000003
20
-81.396999999999963
10
266.05624999999998
20
-81.396999999999935
42
-0.41421356237309503
10
266.55624999999998
20
-81.896999999999949
10
266.55624999999998
20
-94.896999999999963
42
-0.4142135623730846
10
266.05624999999998
20
-95.396999999999949
10
253.05625000000003
20
-95.396999999999963
42
-0.41421356237309503
10
252.55625000000003
20
-94.896999999999963
10
252.55625000000003
20
-81.896999999999963
42
-0.41421356237309503
0
LWPOLYLINE
5
127
100
AcDbEntity
8
0
100
AcDbPolyline
90
8
70
1
43
0.0
10
14.931250000000025
20
-100.44900000000007
10
27.93125000000002
20
-100.44900000000005
42
-0.41421356237309503
10
28.431250000000023
20
-100.94900000000007
10
28.431250000000055
20
-113.94900000000004
42
-0.4142135623730846
10
27.931250000000031
20
-114.44900000000004
10
14.931250000000031
20
-114.44900000000004
42
-0.41421356237309503
10
14.431250000000034
20
-113.94900000000004
10
14.431250000000018
20
-100.94900000000008
42
-0.41421356237309503
0
LWPOLYLINE
5
128
100
AcDbEntity
8
0
100
AcDbPolyline
90
8
70
1
43
0.0
10
6.4932500000000237
20
-101.44900000000005
10
12.493250000000025
20
-101.44900000000007
42
-0.41421356237309631
10
12.993250000000028
20
-101.94900000000007
10
12.993250000000057
20
-115.94900000000004
42
-0.41421356237309503
10
12.493250000000032
20
-116.44900000000007
10
6.4932500000000299
20
-116.44900000000005
42
-0.41421356237309503
10
5.9932500000000299
20
-115.94900000000004
10
5.9932499999999989
20
-101.94900000000007
42
-0.41421356237309503
0
LWPOLYLINE
5
129
100
AcDbEntity
8
0
100
AcDbPolyline
90
8
70
1
43
0.0
10
30.369250000000022
20
-101.44900000000004
10
36.369250000000022
20
-101.44900000000005
42
-0.41421356237309503
10
36.869250000000029
20
-101.94900000000005
10
36.869250000000058
20
-115.94900000000003
42
-0.41421356237309503
10
36.369250000000036
20
-116.44900000000005
10
30.369250000000033
20
-116.44900000000004
42
-0.41421356237309503
10
29.869250000000033
20
-115.94900000000003
10
29.869249999999997
20
-101.94900000000005
42
-0.41421356237309503
0
LWPOLYLINE
5
130
100
AcDbEntity
8
0
100
AcDbPolyline
90
8
70
1
43
0.0
10
45.887500000000031
20
-100.44900000000005
10
58.887500000000031
20
-100.44900000000005
42
-0.41421356237309503
10
59.387500000000031
20
-100.94900000000007
10
59.387500000000067
20
-113.94900000000004
42
-0.4142135623730846
10
58.887500000000045
20
-114.44900000000004
10
45.887500000000038
20
-114.44900000000001
42
-0.41421356237309503
10
45.387500000000038
20
-113.94900000000001
10
45.387500000000017
20
-100.94900000000007
42
-0.41421356237309503
0
LWPOLYLINE
5
131
100
AcDbEntity
8
0
100
AcDbPolyline
90
8
70
1
43
0.0
10
64.937500000000028
20
-100.44900000000004
10
77.937500000000028
20
-100.44900000000005
42
-0.41421356237309503
10
78.437500000000028
20
-100.94900000000004
10
78.437500000000057
20
-113.94900000000001
42
-0.4142135623730846
10
77.937500000000043
20
-114.44900000000003
10
64.937500000000043
20
-114.44900000000001
42
-0.41421356237309503
10
64.437500000000043
20
-113.949
10
64.437500000000028
20
-100.94900000000004
42
-0.41421356237309503
0
LWPOLYLINE
5
132
100
AcDbEntity
8
0
100
AcDbPolyline
90
8
70
1
43
0.0
10
83.98750000000004
20
-100.44900000000004
10
96.98750000000004
20
-100.44900000000004
42
-0.41421356237309503
10
97.48750000000004
20
-100.94900000000004
10
97.487500000000068
20
-113.94900000000001
42
-0.4142135623730846
10
96.98750000000004
20
-114.44900000000003
10
83.98750000000004
20
-114.44899999999998
42
-0.41421356237309503
10
83.48750000000004
20
-113.949
10
83.487500000000026
20
-100.94900000000004
42
-0.41421356237309503
0
LWPOLYLINE
5
133
100
AcDbEntity
8
0
100
AcDbPolyline
90
8
70
1
43
0.0
10
103.03750000000005
20
-100.44900000000001
10
116.03750000000004
20
-100.44900000000001
42
-0.41421356237309503
10
116.53750000000004
20
-100.94900000000003
10
116.53750000000005
20
-113.949
42
-0.4142135623730846
10
116.03750000000004
20
-114.44900000000001
10
103.03750000000005
20
-114.44899999999998
42
-0.41421356237309503
10
102.53750000000004
20
-113.94899999999998
10
102.53750000000004
20
-100.94900000000003
42
-0.41421356237309503
0
LWPOLYLINE
5
134
100
AcDbEntity
8
0
100
AcDbPolyline
90
8
70
1
43
0.0
10
122.08750000000006
20
-100.44900000000001
10
135.08750000000003
20
-100.44900000000001
42
-0.41421356237309503
10
135.58750000000006
20
-100.94900000000003
10
135.58750000000006
20
-113.949
42
-0.4142135623730846
10
135.08750000000003
20
-114.44900000000001
10
122.08750000000006
20
-114.44899999999998
42
-0.41421356237309503
10
121.58750000000005
20
-113.94899999999998
10
121.58750000000005
20
-100.94900000000003
42
-0.41421356237309503
0
LWPOLYLINE
5
135
100
AcDbEntity
8
0
100
AcDbPolyline
90
8
70
1
43
0.0
10
141.13750000000005
20
-100.44900000000001
10
154.13750000000005
20
-100.449
42
-0.41421356237309503
10
154.63750000000002
20
-100.94899999999998
10
154.63750000000007
20
-113.94899999999998
42
-0.4142135623730846
10
154.13750000000005
20
-114.44899999999998
10
141.13750000000005
20
-114.44899999999998
42
-0.41421356237309503
10
140.63750000000002
20
-113.94899999999998
10
140.63750000000002
20
-100.94900000000003
42
-0.41421356237309503
0
LWPOLYLINE
5
136
100
AcDbEntity
8
0
100
AcDbPolyline
90
8
70
1
43
0.0
10
160.1875
20
-100.449
10
173.18750000000006
20
-100.44899999999998
42
-0.41421356237309503
10
173.68750000000006
20
-100.94899999999998
10
173.68750000000006
20
-113.94899999999998
42
-0.4142135623730846
10
173.18750000000006
20
-114.44899999999998
10
160.1875
20
-114.44899999999996
42
-0.41421356237309503
10
159.68750000000003
20
-113.94899999999996
10
159.68750000000003
20
-100.94899999999998
42
-0.41421356237309503
0
LWPOLYLINE
5
137
100
AcDbEntity
8
0
100
AcDbPolyline
90
8
70
1
43
0.0
10
179.23750000000001
20
-100.449
10
192.23750000000007
20
-100.44899999999997
42
-0.41421356237309503
10
192.73750000000007
20
-100.94899999999997
10
192.73750000000007
20
-113.94899999999996
42
-0.4142135623730846
10
192.23750000000007
20
-114.44899999999997
10
179.23750000000001
20
-114.44899999999997
42
-0.41421356237309503
10
178.73750000000001
20
-113.94899999999996
10
178.73750000000001
20
-100.94899999999998
42
-0.41421356237309503
0
LWPOLYLINE
5
138
100
AcDbEntity
8
0
100
AcDbPolyline
90
8
70
1
43
0.0
10
198.28750000000002
20
-100.44899999999998
10
211.28749999999999
20
-100.44899999999997
42
-0.41421356237309503
10
211.78750000000002
20
-100.94899999999997
10
211.78750000000002
20
-113.94899999999996
42
-0.4142135623730846
10
211.28749999999999
20
-114.44899999999997
10
198.28750000000002
20
-114.44899999999991
42
-0.41421356237309503
10
197.78750000000005
20
-113.94899999999994
10
197.78750000000002
20
-100.94899999999997
42
-0.41421356237309503
0
LWPOLYLINE
5
139
100
AcDbEntity
8
0
100
AcDbPolyline
90
8
70
1
43
0.0
10
217.33750000000003
20
-100.44899999999998
10
230.33750000000001
20
-100.44899999999996
42
-0.41421356237309503
10
230.83750000000003
20
-100.94899999999996
10
230.83750000000003
20
-113.94899999999994
42
-0.4142135623730846
10
230.33750000000001
20
-114.44899999999996
10
217.33750000000003
20
-114.44899999999991
42
-0.41421356237309503
10
216.83750000000006
20
-113.94899999999994
10
216.83750000000003
20
-100.94899999999998
42
-0.41421356237309503
0
LWPOLYLINE
5
140
100
AcDbEntity
8
0
100
AcDbPolyline
90
8
70
1
43
0.0
10
5.4062500000000311
20
-119.50100000000006
10
18.406250000000032
20
-119.50100000000006
42
-0.41421356237309631
10
18.906250000000032
20
-120.00100000000005
10
18.906250000000068
20
-133.00100000000006
42
-0.41421356237309503
10
18.406250000000043
20
-133.50100000000009
10
5.4062500000000391
20
-133.50100000000003
42
-0.41421356237309631
10
4.9062500000000391
20
-133.00100000000006
10
4.9062500000000417
20
-120.00100000000005
42
-0.41421356237309503
0
LWPOLYLINE
5
141
100
AcDbEntity
8
0
100
AcDbPolyline
90
8
70
1
43
0.0
10
29.218750000000032
20
-119.50100000000005
10
42.218750000000036
20
-119.50100000000003
42
-0.41421356237309503
10
42.718750000000043
20
-120.00100000000003
10
42.718750000000071
20
-133.00100000000003
42
-0.41421356237309503
10
42.218750000000043
20
-133.50100000000006
10
29.218750000000036
20
-133.50100000000003
42
-0.41421356237309503
10
28.718750000000036
20
-133.00100000000003
10
28.718750000000043
20
-120.00100000000003
42
-0.41421356237309503
0
LWPOLYLINE
5
142
100
AcDbEntity
8
0
100
AcDbPolyline
90
8
70
1
43
0.0
10
53.031250000000043
20
-119.50100000000005
10
66.031250000000043
20
-119.50100000000003
42
-0.41421356237309503
10
66.531250000000043
20
-120.00100000000002
10
66.531250000000071
20
-133.00100000000003
42
-0.41421356237309503
10
66.031250000000043
20
-133.50100000000003
10
53.03125000000005
20
-133.50100000000003
42
-0.41421356237309503
10
52.53125000000005
20
-133.00100000000003
10
52.53125000000005
20
-120.00100000000003
42
-0.41421356237309503
0
LWPOLYLINE
5
143
100
AcDbEntity
8
0
100
AcDbPolyline
90
8
70
1
43
0.0
10
210.19375000000002
20
-119.50099999999998
10
223.19375000000008
20
-119.50099999999995
42
-0.41421356237309503
10
223.69375000000008
20
-120.00099999999996
10
223.69375000000014
20
-133.00099999999998
42
-0.41421356237309503
10
223.19375000000008
20
-133.501
10
210.19375000000002
20
-133.50099999999998
42
-0.41421356237309503
10
209.69375000000002
20
-133.00099999999998
10
209.69375000000008
20
-120.00099999999996
42
-0.41421356237309503
0
LWPOLYLINE
5
144
100
AcDbEntity
8
0
100
AcDbPolyline
90
8
70
1
43
0.0
10
234.00625000000005
20
-119.50099999999995
10
247.00625000000008
20
-119.50099999999998
42
-0.41421356237309503
10
247.50625000000008
20
-120.00099999999995
10
247.50625000000014
20
-133.00099999999995
42
-0.41421356237309503
10
247.00625000000008
20
-133.50099999999998
10
234.00625000000005
20
-133.50099999999995
42
-0.41421356237309503
10
233.50625000000005
20
-133.00099999999995
10
233.50625000000008
20
-120.00099999999995
42
-0.41421356237309503
0
LWPOLYLINE
5
145
100
AcDbEntity
8
0
100
AcDbPolyline
90
8
70
1
43
0.0
10
257.81875000000008
20
-119.50099999999995
10
270.81875000000014
20
-119.50099999999992
42
-0.41421356237309503
10
271.31875000000014
20
-120.00099999999992
10
271.31875000000014
20
-133.00099999999992
42
-0.41421356237309503
10
270.81875000000014
20
-133.50099999999995
10
257.81875000000008
20
-133.50099999999995
42
-0.41421356237309503
10
257.31875000000008
20
-133.00099999999995
10
257.31875000000008
20
-120.00099999999995
42
-0.41421356237309503
0
LWPOLYLINE
5
146
100
AcDbEntity
8
0
100
AcDbPolyline
90
15
70
1
43
0.0
10
91.074500000000029
20
-132.50100000000003
10
88.462500000000048
20
-132.50100000000003
42
0.41421356237309503
10
87.962500000000077
20
-133.00100000000003
42
-0.4142135623730846
10
87.462500000000048
20
-133.50100000000003
10
74.462500000000048
20
-133.501
42
-0.41421356237309503
10
73.962500000000063
20
-133.00100000000003
10
73.962500000000034
20
-120.00100000000002
42
-0.41421356237309503
10
74.462500000000048
20
-119.501
10
76.962500000000048
20
-119.50100000000003
42
0.41421356237309503
10
77.462500000000048
20
-119.00100000000002
10
77.462500000000048
20
-118.00100000000002
42
-0.41421356237309503
10
77.962500000000034
20
-117.50100000000003
10
91.074500000000029
20
-117.50100000000002
42
-0.41421356237309503
10
91.574500000000043
20
-118.00100000000002
10
91.574500000000057
20
-132.001
42
-0.41421356237309503
0
LWPOLYLINE
5
147
100
AcDbEntity
8
0
100
AcDbPolyline
90
23
70
1
43
0.0
10
126.85675000000005
20
-132.501
10
119.41875000000003
20
-132.501
42
0.41421356237306384
10
118.91875000000007
20
-133.001
42
-0.41421356237309503
10
118.41875000000005
20
-133.50100000000003
10
93.512500000000045
20
-133.501
42
-0.41421356237309503
10
93.012500000000045
20
-133.00100000000003
10
93.012500000000031
20
-120.00100000000002
42
-0.41421356237309503
10
93.512500000000045
20
-119.501
10
95.980750000000057
20
-119.50100000000003
42
0.41421356237306384
10
96.480750000000043
20
-119.00100000000002
10
96.480750000000057
20
-118.00100000000002
42
-0.41421356237309503
10
96.980750000000043
20
-117.50100000000003
10
102.98075000000004
20
-117.501
42
-0.41421356237309503
10
103.48075000000006
20
-118.001
10
103.48075000000006
20
-119.001
42
0.41421356237309503
10
103.98075000000006
20
-119.501
10
107.95050000000003
20
-119.501
42
0.41421356237309503
10
108.45050000000003
20
-119.001
10
108.45050000000006
20
-118.001
42
-0.41421356237309503
10
108.95050000000005
20
-117.50100000000002
10
126.85675000000005
20
-117.50100000000002
42
-0.41421356237309503
10
127.35675000000003
20
-118.001
10
127.35675000000008
20
-132.00099999999998
42
-0.41421356237309503
0
LWPOLYLINE
5
148
100
AcDbEntity
8
0
100
AcDbPolyline
90
15
70
1
43
0.0
10
150.60575000000003
20
-132.501
10
145.61250000000004
20
-132.501
42
0.41421356237306384
10
145.11250000000007
20
-133.00099999999998
42
-0.41421356237309503
10
144.61250000000004
20
-133.501
10
131.61250000000007
20
-133.501
42
-0.41421356237309503
10
131.11250000000007
20
-133.001
10
131.11250000000007
20
-120.001
42
-0.41421356237309503
10
131.61250000000007
20
-119.50099999999999
10
143.60575000000006
20
-119.50099999999999
42
0.41421356237309503
10
144.10575000000006
20
-119.00099999999998
10
144.10575000000006
20
-118.00099999999999
42
-0.41421356237309503
10
144.60575000000003
20
-117.501
10
150.60575000000003
20
-117.50099999999998
42
-0.41421356237309503
10
151.10575000000006
20
-118.00099999999999
10
151.10575000000006
20
-132.00099999999998
42
-0.41421356237309503
0
LWPOLYLINE
5
149
100
AcDbEntity
8
0
100
AcDbPolyline
90
22
70
1
43
0.0
10
169.21250000000003
20
-133.00099999999998
42
0.41421356237309503
10
169.71250000000003
20
-133.501
10
182.71250000000009
20
-133.501
42
0.41421356237309503
10
183.21250000000006
20
-133.00099999999998
10
183.21250000000009
20
-120.00099999999998
42
0.41421356237309503
10
182.71250000000009
20
-119.50099999999998
10
175.48175000000009
20
-119.50099999999998
42
-0.41421356237312623
10
174.98175000000003
20
-119.00099999999998
10
174.98175000000001
20
-118.00099999999999
42
0.41421356237309503
10
174.48175000000003
20
-117.50099999999998
10
154.16250000000002
20
-117.501
42
0.41421356237309503
10
153.66250000000005
20
-118.00099999999999
10
153.66250000000005
20
-119.001
42
-0.4142135623730846
10
153.16250000000002
20
-119.50099999999999
10
153.04375000000005
20
-119.50099999999998
42
0.41421356237309503
10
152.54375000000005
20
-120.00099999999998
10
152.54375000000005
20
-133.00099999999998
42
0.41421356237309503
10
153.04375000000005
20
-133.501
10
166.04375000000005
20
-133.501
42
0.41421356237310542
10
166.54375000000002
20
-133.00099999999998
42
-0.41421356237313667
10
167.04375000000005
20
-132.501
10
168.71250000000003
20
-132.50100000000003
42
-0.41421356237312623
0
LWPOLYLINE
5
150
100
AcDbEntity
8
0
100
AcDbPolyline
90
15
70
1
43
0.0
10
188.26250000000005
20
-133.00099999999998
42
0.41421356237309503
10
188.76250000000005
20
-133.501
10
201.76250000000005
20
-133.501
42
0.41421356237309503
10
202.26250000000007
20
-133.00099999999998
10
202.26250000000005
20
-120.00099999999996
42
0.41421356237309503
10
201.76250000000005
20
-119.50099999999998
10
199.26250000000007
20
-119.50099999999998
42
-0.41421356237313667
10
198.76250000000005
20
-119.00099999999996
10
198.76250000000002
20
-118.00099999999998
42
0.41421356237309503
10
198.26250000000005
20
-117.501
10
185.15049999999999
20
-117.50099999999998
42
0.41421356237309503
10
184.65050000000002
20
-118.00099999999998
10
184.65050000000005
20
-132.00099999999995
42
0.41421356237309503
10
185.15050000000002
20
-132.50099999999995
10
187.76249999999999
20
-132.50099999999995
42
-0.41421356237312623
0
LWPOLYLINE
5
151
100
AcDbEntity
8
0
100
AcDbPolyline
90
24
70
1
43
0.0
10
273.20000000000005
20
-114.44899999999996
10
270.73175000000003
20
-114.44899999999997
42
0.41421356237313667
10
270.23174999999998
20
-114.94899999999994
10
270.23175000000003
20
-115.94899999999993
42
-0.41421356237309503
10
269.73175000000003
20
-116.44899999999994
10
263.73174999999998
20
-116.44899999999994
42
-0.41421356237309503
10
263.23174999999998
20
-115.94899999999994
10
263.23175000000003
20
-114.94899999999996
42
0.41421356237309503
10
262.73174999999998
20
-114.44899999999996
10
246.85575000000003
20
-114.44899999999993
42
0.41421356237309503
10
246.35575000000003
20
-114.94899999999993
10
246.35575000000003
20
-115.94899999999994
42
-0.41421356237309503
10
245.85575000000003
20
-116.44899999999996
10
239.85575
20
-116.44899999999994
42
-0.41421356237309503
10
239.35575
20
-115.94899999999994
10
239.35574999999997
20
-114.94899999999996
42
0.41421356237309503
10
238.85575
20
-114.44899999999996
10
238.76875000000001
20
-114.44899999999993
42
-0.41421356237309503
10
238.26875000000001
20
-113.94899999999993
10
238.26875000000001
20
-100.94899999999996
42
-0.41421356237309503
10
238.76875000000001
20
-100.44899999999997
10
273.20000000000005
20
-100.44899999999996
42
-0.41421356237309503
10
273.70000000000005
20
-100.94899999999996
10
273.7000000000001
20
-113.94899999999993
42
-0.4142135623730846
0
LWPOLYLINE
5
152
100
AcDbEntity
8
0
100
AcDbPolyline
90
8
70
1
43
0.0
10
23.66875000000001
20
-81.897000000000048
10
23.668750000000031
20
-94.897000000000062
42
-0.4142135623730846
10
23.168750000000024
20
-95.397000000000048
10
5.4062500000000204
20
-95.397000000000091
42
-0.41421356237309437
10
4.9062500000000222
20
-94.897000000000077
10
4.9062500000000249
20
-81.897000000000077
42
-0.41421356237309503
10
5.4062500000000142
20
-81.397000000000077
10
23.168750000000014
20
-81.397000000000048
42
-0.41421356237309503
0
ENDSEC
0
SECTION
2
OBJECTS
0
DICTIONARY
5
C
100
AcDbDictionary
3
ACAD_GROUP
350
D
3
ACAD_MLINESTYLE
350
17
0
DICTIONARY
5
D
100
AcDbDictionary
0
DICTIONARY
5
1A
330
C
100
AcDbDictionary
0
DICTIONARY
5
17
100
AcDbDictionary
0
ENDSEC
0
EOF
