<?xml version="1.0" encoding="UTF-8" standalone="no"?>
<!-- Created with Inkscape (http://www.inkscape.org/) -->

<svg
   width="342mm"
   height="148mm"
   viewBox="0 0 342 148"
   version="1.1"
   id="svg1"
   xml:space="preserve"
   inkscape:version="1.3.2 (091e20e, 2023-11-25, custom)"
   sodipodi:docname="soroka-top-2mm.svg"
   xmlns:inkscape="http://www.inkscape.org/namespaces/inkscape"
   xmlns:sodipodi="http://sodipodi.sourceforge.net/DTD/sodipodi-0.dtd"
   xmlns="http://www.w3.org/2000/svg"
   xmlns:svg="http://www.w3.org/2000/svg"><sodipodi:namedview
     id="namedview1"
     pagecolor="#ffffff"
     bordercolor="#000000"
     borderopacity="0.25"
     inkscape:showpageshadow="2"
     inkscape:pageopacity="0.0"
     inkscape:pagecheckerboard="0"
     inkscape:deskcolor="#d1d1d1"
     inkscape:document-units="mm"
     inkscape:zoom="0.72426347"
     inkscape:cx="690.35651"
     inkscape:cy="402.47785"
     inkscape:window-width="1920"
     inkscape:window-height="1009"
     inkscape:window-x="-8"
     inkscape:window-y="-8"
     inkscape:window-maximized="1"
     inkscape:current-layer="layer1" /><defs
     id="defs1"><marker
       id="DistanceX"
       orient="auto"
       refX="0"
       refY="0"
       style="overflow:visible"><path
         d="M 3,-3 -3,3 M 0,-5 V 5"
         style="stroke:#000000;stroke-width:0.5"
         id="path1" /></marker><pattern
       id="Hatch"
       patternUnits="userSpaceOnUse"
       width="8"
       height="8"
       x="0"
       y="0"><path
         d="M8 4 l-4,4"
         stroke="#000000"
         stroke-width="0.25"
         linecap="square"
         id="path2" /><path
         d="M6 2 l-4,4"
         stroke="#000000"
         stroke-width="0.25"
         linecap="square"
         id="path3" /><path
         d="M4 0 l-4,4"
         stroke="#000000"
         stroke-width="0.25"
         linecap="square"
         id="path4" /></pattern><symbol
       id="*MODEL_SPACE" /><symbol
       id="*PAPER_SPACE" /></defs><g
     inkscape:label="Слой 1"
     inkscape:groupmode="layer"
     id="layer1"><g
       inkscape:label="0"
       id="g16"
       transform="matrix(0.26458333,0,0,0.26458333,320.24437,-118.37539)"><path
         d="m -1175.333,879.57457 a 22.677165,22.677165 0 0 0 22.6772,22.67717 H 15.974097 A 22.677165,22.677165 0 0 0 38.651262,879.57457 V 568.89741 A 22.677165,22.677165 0 0 0 15.974097,546.22024 H -1152.6558 a 22.677165,22.677165 0 0 0 -22.6772,22.67717 z"
         style="fill:none;stroke:#000000"
         id="path5" /><path
         d="m -1143.1125,864.36198 a 5.669291,5.669291 0 0 0 5.6693,5.66929 H 0.761498 a 5.669291,5.669291 0 0 0 5.669291,-5.66929 V 584.11001 A 5.669291,5.669291 0 0 0 0.761498,578.44072 H -1137.4432 a 5.669291,5.669291 0 0 0 -5.6693,5.66929 z"
         style="fill:none;stroke:#000000"
         id="path6" /><path
         d="m -857.92581,562.3318 a 3.779528,3.779528 0 0 0 -7.55905,0 3.779528,3.779528 0 0 0 7.55905,0 z"
         style="fill:none;stroke:#000000"
         id="path7" /><path
         d="m -857.92581,886.14018 a 3.779528,3.779528 0 0 0 -7.55905,0 3.779528,3.779528 0 0 0 7.55905,0 z"
         style="fill:none;stroke:#000000"
         id="path8" /><path
         d="m 22.169311,881.99026 a 3.779528,3.779528 0 0 0 -7.559055,0 3.779528,3.779528 0 0 0 7.559055,0 z"
         style="fill:none;stroke:#000000"
         id="path9" /><path
         d="m 22.169311,566.48172 a 3.779528,3.779528 0 0 0 -7.559055,0 3.779528,3.779528 0 0 0 7.559055,0 z"
         style="fill:none;stroke:#000000"
         id="path10" /><path
         d="m -1151.2908,566.48172 a 3.77955,3.77955 0 0 0 -7.5591,0 3.77955,3.77955 0 0 0 7.5591,0 z"
         style="fill:none;stroke:#000000"
         id="path11" /><path
         d="m -564.56077,562.3318 a 3.779528,3.779528 0 0 0 -7.55905,0 3.779528,3.779528 0 0 0 7.55905,0 z"
         style="fill:none;stroke:#000000"
         id="path12" /><path
         d="m -564.56077,886.14018 a 3.779528,3.779528 0 0 0 -7.55905,0 3.779528,3.779528 0 0 0 7.55905,0 z"
         style="fill:none;stroke:#000000"
         id="path13" /><path
         d="m -271.19573,886.14018 a 3.779528,3.779528 0 0 0 -7.55905,0 3.779528,3.779528 0 0 0 7.55905,0 z"
         style="fill:none;stroke:#000000"
         id="path14" /><path
         d="m -271.19573,562.3318 a 3.779528,3.779528 0 0 0 -7.55905,0 3.779528,3.779528 0 0 0 7.55905,0 z"
         style="fill:none;stroke:#000000"
         id="path15" /><path
         d="m -1151.292,881.99026 a 3.779528,3.779528 0 0 0 -7.559,0 3.779528,3.779528 0 0 0 7.559,0 z"
         style="fill:none;stroke:#000000"
         id="path16" /></g></g></svg>
